<?xml version="1.0" encoding="UTF-8" standalone="no"?>
<svg width="535px" height="294px" viewBox="0 0 535 294" version="1.1" xmlns="http://www.w3.org/2000/svg" xmlns:xlink="http://www.w3.org/1999/xlink" xmlns:sketch="http://www.bohemiancoding.com/sketch/ns">
    <!-- Generator: Sketch 3.3.1 (12002) - http://www.bohemiancoding.com/sketch -->
    <title>ELBv1</title>
    <desc>Created with Sketch.</desc>
    <defs></defs>
    <g id="Page-1" stroke="none" stroke-width="1" fill="none" fill-rule="evenodd" sketch:type="MSPage">
        <g id="AWS-logo" sketch:type="MSLayerGroup" transform="translate(11.000000, 91.000000)">
            <g id="g10" transform="translate(257.000000, 96.278670) scale(1, -1) translate(-257.000000, -96.278670) " sketch:type="MSShapeGroup">
                <g id="g12">
                    <path d="M142.864306,126.158257 L112.991379,136.118119 L112.991379,179.277523 L142.900862,170.424312 L142.864306,126.158257" id="path14" fill="#F68D11"></path>
                    <path d="M150.655172,170.424312 L180.564655,179.277523 L180.460526,136.147999 L150.655172,126.158257 L150.655172,170.424312" id="path16" fill="#F68D11"></path>
                    <path d="M174.471983,183.950912 L146.596345,192.557339 L119.084052,183.950912 L146.636224,176.572867 L174.471983,183.950912" id="path18" fill="#F68D11"></path>
                    <path d="M218.191892,126.158257 L188.318966,136.118119 L188.318966,179.277523 L218.228448,170.424312 L218.191892,126.158257" id="path20" fill="#F68D11"></path>
                    <path d="M225.982759,170.424312 L255.892241,179.277523 L255.788112,136.147999 L225.982759,126.158257 L225.982759,170.424312" id="path22" fill="#F68D11"></path>
                    <path d="M249.799569,183.950912 L221.923931,192.557339 L194.411638,183.950912 L221.96381,176.572867 L249.799569,183.950912" id="path24" fill="#F68D11"></path>
                    <path d="M29.9094828,107.345183 L0,116.198394 L0,73.0389908 L29.8731483,63.0791284 L29.9094828,107.345183" id="path26" fill="#F68D11"></path>
                    <path d="M37.6637931,107.345183 L67.5732759,116.198394 L67.4694789,73.0679851 L37.6637931,63.0791284 L37.6637931,107.345183" id="path28" fill="#F68D11"></path>
                    <path d="M61.4806034,120.871783 L33.6048547,129.478211 L6.09267241,120.871783 L33.6451772,113.493739 L61.4806034,120.871783" id="path30" fill="#F68D11"></path>
                    <path d="M105.200734,63.0791284 L75.3275862,73.0389908 L75.3275862,116.198394 L105.237069,107.345183 L105.200734,63.0791284" id="path32" fill="#F68D11"></path>
                    <path d="M112.991379,107.345183 L142.900862,116.198394 L142.796733,73.0679851 L112.991379,63.0791284 L112.991379,107.345183" id="path34" fill="#F68D11"></path>
                    <path d="M136.80819,120.871783 L108.932441,129.478211 L81.4202586,120.871783 L108.972763,113.493739 L136.80819,120.871783" id="path36" fill="#F68D11"></path>
                    <path d="M67.5369414,0 L37.6637931,9.95986239 L37.6637931,53.1192661 L67.5732759,44.266055 L67.5369414,0" id="path38" fill="#F68D11"></path>
                    <path d="M75.3275862,44.266055 L105.237069,53.1192661 L105.133272,9.98882345 L75.3275862,0 L75.3275862,44.266055" id="path40" fill="#F68D11"></path>
                    <path d="M99.1443966,57.7926548 L71.2686478,66.3990826 L43.7564655,57.7926548 L71.3089703,50.4144994 L99.1443966,57.7926548" id="path42" fill="#F68D11"></path>
                    <path d="M199.828578,38.1518062 L197.630784,38.1440596 C196.824336,38.1440596 195.796336,37.5998085 195.543767,36.7174753 L188.876168,13.2508222 L182.281681,36.6664587 C182.083392,37.4005006 181.391043,38.1440596 180.449448,38.1440596 L177.847323,38.1440596 C176.910159,38.1440596 176.226672,37.3905407 176.037246,36.6512976 L169.902478,13.4791244 L163.563884,36.7231193 C163.31353,37.5730275 162.260052,38.1440596 161.433664,38.1440596 L158.271013,38.1495929 C157.59528,38.1495929 156.967181,37.8595396 156.630422,37.392754 C156.402224,37.0762517 156.339082,36.7174753 156.444319,36.4053997 L166.236905,1.77193698 C166.452918,1.04353794 167.084341,0.309948704 168.008211,0.309948704 L171.153138,0.309948704 C172.002789,0.309948704 172.747203,0.928550224 172.962108,1.80608825 L178.989422,24.8763056 L185.548461,1.77971674 C185.745642,1.07250122 186.380388,0.309948704 187.30869,0.309948704 L190.402659,0.309948704 C191.263388,0.309948704 191.987862,0.90736781 192.200552,1.78274897 L201.62647,36.3911239 C201.737246,36.7244472 201.672996,37.0948435 201.448121,37.4070298 C201.116901,37.8665115 200.496556,38.1518062 199.828578,38.1518062" id="path44" fill="#100F0D"></path>
                    <path d="M227.021836,23.4476187 L210.407672,23.4476187 C210.789849,28.1055143 213.817353,32.9349409 218.946276,33.1208584 C224.404203,32.9427982 226.901091,28.223926 227.021836,23.4476187 L227.021836,23.4476187 Z M218.934091,38.3994748 C207.711388,38.3994748 202.60019,28.4876411 202.60019,19.2790843 C202.60019,7.78633268 208.954293,0.360958693 218.787866,0.360958693 C225.825457,0.360958693 231.190332,3.91305287 233.507763,10.1193751 C233.631832,10.4742782 233.59306,10.8594482 233.399203,11.2048452 C233.16325,11.6241554 232.715716,11.940547 232.186207,12.0568561 L229.07119,12.6521239 C228.234832,12.7831514 227.276621,12.2881462 226.959802,11.5701508 C225.446603,8.12178085 222.688284,6.16525442 219.226539,6.06324329 C215.895509,6.16612867 212.836987,8.14296216 211.435672,11.0963933 C210.296897,13.5088933 210.128517,15.8869765 210.109685,18.3051204 L232.664759,18.312867 C233.137772,18.312867 233.627401,18.5208068 233.973022,18.8706193 C234.262147,19.1606726 234.419448,19.5211089 234.416125,19.8820986 C234.360737,28.8347976 230.265353,38.3994748 218.934091,38.3994748 L218.934091,38.3994748 Z" id="path46" fill="#100F0D"></path>
                    <path d="M262.164371,19.2237517 C262.164371,17.1034077 261.779978,6.51584157 254.250543,6.24480052 C251.727069,6.34120092 249.177009,7.82307351 247.752431,10.0139002 C246.703384,11.6708561 246.090793,13.9615138 245.933491,16.7956479 L245.933491,23.0248779 C246.056453,27.7968693 249.4185,33.0335436 254.226172,33.2362821 C261.781086,32.9384822 262.164371,21.5123068 262.164371,19.2237517 L262.164371,19.2237517 Z M255.431414,38.7207357 L254.834332,38.7207357 C251.10894,38.7207357 248.181134,37.1748544 245.933491,34.0061795 L245.930168,48.6062311 C245.930168,49.4262597 245.082733,50.1732494 244.146677,50.1732494 L240.903159,50.1732494 C240.055724,50.1732494 239.107483,49.5027294 239.105267,48.6062311 L239.105267,3.02988974 C239.108591,2.20205917 239.956026,1.44989037 240.890974,1.44989037 L241.843647,1.4550695 C242.743147,1.4550695 243.383431,2.17915149 243.599444,2.85178526 L244.614151,6.06885401 C246.971461,2.72469742 250.521828,0.76039012 254.32144,0.76039012 L254.903013,0.76039012 C264.911612,0.76039012 269.391388,10.4855218 269.391388,20.1233486 C269.391388,24.920793 268.207194,29.507863 266.14344,32.7080774 C263.758435,36.4165768 259.653082,38.7207357 255.431414,38.7207357 L255.431414,38.7207357 Z" id="path48" fill="#100F0D"></path>
                    <path d="M304.907237,20.2495069 C302.798065,21.763406 300.262405,22.2691456 297.722315,22.7758813 L292.8515,23.6780235 C289.356522,24.2520436 287.333754,25.1883813 287.333754,28.2692987 C287.333754,31.5261737 290.712418,32.7711565 293.577082,32.8485115 C297.075384,32.7603114 299.70631,31.2010396 300.983556,28.4586468 C301.287082,27.8123624 301.959491,27.3775591 302.658487,27.3775591 C302.778125,27.3775591 302.899978,27.3909495 303.015185,27.4159599 L306.054875,28.0869226 C306.551151,28.1962597 307.014194,28.5360017 307.262332,28.9778876 C307.460621,29.3284748 307.503823,29.7113761 307.385293,30.0533314 C305.525366,35.4659633 300.802991,38.3264358 293.659056,38.3264358 C287.204147,38.31216 280.306134,35.4448263 280.306134,27.4363222 C280.306134,21.9627139 283.749047,18.4867219 290.546254,17.1034077 L295.998642,16.0654794 C298.991806,15.4931193 302.052543,14.4751107 302.052543,11.2644937 C302.052543,6.51151456 296.515966,6.02692299 294.842142,5.99234014 C291.086841,6.07318102 286.835263,7.74655963 285.802832,11.2900573 C285.595681,12.0690292 284.614207,12.6201416 283.753478,12.4411961 L280.574211,11.7858372 C280.095659,11.6851319 279.658095,11.3742735 279.40331,10.9545538 C279.189513,10.6048299 279.128586,10.213186 279.227177,9.85568222 C280.867767,3.97616519 286.549461,0.430557104 294.425625,0.370900849 L294.600651,0.369603853 C301.634918,0.369603853 309.15106,3.37875052 309.15106,11.8200327 C309.15106,15.2561852 307.603522,18.3284708 304.907237,20.2495069" id="path50" fill="#100F0D"></path>
                    <path d="M337.063254,23.4134232 L320.444659,23.4134232 C320.824621,28.0756347 323.852125,32.9072747 328.981047,33.0845602 C334.436759,32.9115906 336.93697,28.1932718 337.063254,23.4134232 L337.063254,23.4134232 Z M328.972185,38.3674925 C317.747267,38.3674925 312.634961,28.4552162 312.634961,19.2471021 C312.634961,7.75520258 318.990172,0.330698417 328.824853,0.330698417 C335.863552,0.330698417 341.228427,3.88321755 343.548073,10.0882561 C343.671034,10.4435908 343.632263,10.829624 343.437297,11.1758509 C343.201345,11.5956038 342.752703,11.9121061 342.224302,12.0262018 L339.104853,12.6214696 C338.374841,12.7398813 337.35681,12.3625132 336.997897,11.5381686 C335.483591,8.09195659 332.724164,6.13543016 329.265741,6.02909203 C325.931388,6.13543016 322.873974,8.11184312 321.478198,11.0643558 C320.337207,13.4712672 320.16772,15.851453 320.151103,18.2753515 L342.703961,18.2808847 C343.173651,18.2808847 343.659957,18.4876072 344.005578,18.8350958 C344.29581,19.1264771 344.453112,19.4870241 344.449789,19.8501164 C344.397724,28.80193 340.305664,38.3674925 328.972185,38.3674925 L328.972185,38.3674925 Z" id="path52" fill="#100F0D"></path>
                    <path d="M365.747556,37.9460797 C365.307776,37.9944404 364.884612,38.0177907 364.473634,38.0177907 C360.688422,38.0177907 357.614392,35.9618538 355.480849,32.0341267 L355.488603,35.4738205 C355.48528,36.306797 354.653353,37.0386256 353.708435,37.0386256 L350.891405,37.0386256 C349.967534,37.0386256 349.152224,36.3038091 349.145578,35.46043 L349.141147,2.04730505 C349.141147,1.20867357 349.956457,0.472488125 350.886974,0.472488125 L354.173694,0.47378512 C355.028884,0.47378512 355.991526,1.14425539 355.99928,2.04730505 L356.001496,18.8926416 C356.001496,21.6704472 356.260711,23.763125 357.588914,26.2389255 C359.486504,29.7654914 362.136263,31.4955195 365.689953,31.5231858 C366.580591,31.5296044 367.362668,32.3064736 367.362668,33.1861508 L367.362668,36.3115556 C367.362668,37.1294817 366.652595,37.8474771 365.747556,37.9460797" id="path54" fill="#100F0D"></path>
                    <path d="M400.255345,38.6022133 L397.659866,38.600996 C396.846772,38.600996 395.804371,38.0177907 395.551802,37.1623492 L387.138375,10.7457619 L378.546599,37.1359002 C378.292922,38.0121468 377.248306,38.600996 376.43078,38.600996 L372.72422,38.6044266 C372.044056,38.6044266 371.386047,38.3014255 371.049289,37.8332013 C370.823306,37.5197976 370.761272,37.1644518 370.873155,36.8328991 L382.632013,1.9854875 C382.857996,1.29598836 383.457293,0.490212253 384.405534,0.490212253 L388.890849,0.490212253 C389.713914,0.490212253 390.388539,1.05002181 390.697603,1.98851972 L402.103086,36.8216112 C402.217185,37.1523893 402.156259,37.5089524 401.931384,37.8232414 C401.592409,38.2957815 400.935509,38.6022133 400.255345,38.6022133" id="path56" fill="#100F0D"></path>
                    <path d="M408.782871,51.9970109 C406.392328,51.9970109 404.448211,50.0496365 404.448211,47.6534042 C404.448211,45.2577253 406.392328,43.3111256 408.782871,43.3111256 C411.174522,43.3111256 413.120853,45.2577253 413.120853,47.6534042 C413.120853,50.0496365 411.174522,51.9970109 408.782871,51.9970109" id="path58" fill="#100F0D"></path>
                    <path d="M410.56747,38.814469 L407.008241,38.8180103 C406.04006,38.8180103 405.158284,38.0354971 405.158284,37.1778423 L405.14056,1.69975011 C405.14056,1.27049111 405.362112,0.844254375 405.745397,0.527820694 C406.096556,0.240351399 406.545198,0.0743531393 406.996056,0.0743531393 L410.580763,0.068733453 L410.582978,0.068733453 C411.56556,0.0773791669 412.428504,0.838634799 412.428504,1.69758108 L412.428504,37.1778423 C412.428504,38.0497729 411.557806,38.814469 410.56747,38.814469" id="path60" fill="#100F0D"></path>
                    <path d="M443.830138,14.7560894 L440.858022,14.7448016 C440.02831,14.7448016 439.332638,14.2468085 439.023573,13.3818498 C437.93797,8.70277282 435.478746,6.27808859 431.75003,6.1708762 C424.487565,6.38658469 423.923716,16.4990654 423.923716,19.5933733 C423.923716,25.76384 426.062797,32.422672 432.034724,32.5986296 C435.639371,32.4879644 438.261435,29.9059255 439.047944,25.6985476 C439.196384,24.8400075 439.856608,24.1902924 440.758323,24.077414 L443.938698,24.0463171 C444.889155,24.1492357 445.634677,24.8676737 445.62803,25.7586388 C444.502547,33.3621084 439.228509,38.2767471 432.179841,38.2767471 L431.936134,38.2702179 L431.660302,38.2767471 C421.409103,38.2767471 416.819659,28.7189312 416.819659,19.2471021 C416.819659,10.5628989 420.68906,0.422775132 431.602698,0.422775132 L432.12556,0.422775132 C438.998095,0.422775132 444.185728,5.23541273 445.671233,13.0385665 C445.704466,13.4104014 445.575966,13.7821256 445.312319,14.0843521 C444.971129,14.475996 444.42722,14.7270952 443.830138,14.7560894" id="path62" fill="#100F0D"></path>
                    <path d="M473.183526,23.4134232 L456.562716,23.4134232 C456.942677,28.0769627 459.971289,32.9072747 465.103534,33.0845602 C470.560353,32.9115906 473.059457,28.1932718 473.183526,23.4134232 L473.183526,23.4134232 Z M465.092457,38.3674925 C453.868647,38.3674925 448.757448,28.4552162 448.757448,19.2471021 C448.757448,7.75520258 455.112659,0.330698417 464.947341,0.330698417 C471.982716,0.330698417 477.345375,3.88105958 479.667237,10.0869502 C479.787983,10.444454 479.748103,10.8317819 479.554246,11.1758509 C479.31497,11.5987024 478.879621,11.9077901 478.342358,12.0262018 L475.227341,12.6214696 C474.494004,12.7398813 473.479297,12.3625132 473.120384,11.5381686 C471.601647,8.09195659 468.841112,6.13543016 465.383797,6.02779725 C462.050552,6.13543016 458.994246,8.11184312 457.59847,11.0643558 C456.456371,13.4748085 456.286884,15.8549943 456.269159,18.2753515 L478.824233,18.2787821 C479.298353,18.2787821 479.787983,18.4876072 480.134711,18.8385264 C480.422728,19.1316783 480.577815,19.492668 480.572276,19.8501164 C480.520211,28.80193 476.427043,38.3674925 465.092457,38.3674925 L465.092457,38.3674925 Z" id="path64" fill="#100F0D"></path>
                    <path d="M508.827875,20.2495069 C506.715379,21.7647339 504.176397,22.270031 501.640737,22.7758813 L496.769922,23.6780235 C493.278267,24.2520436 491.256608,25.1883813 491.256608,28.2692987 C491.256608,32.470258 496.475259,32.8212878 497.493289,32.8485115 C500.994914,32.7603114 503.625841,31.2010396 504.900871,28.4573188 C505.206612,27.8111451 505.881237,27.3775591 506.581341,27.3775591 C506.702086,27.3775591 506.822832,27.3909495 506.940254,27.4159599 L509.977728,28.0869226 C510.474004,28.1962597 510.93594,28.5373297 511.184078,28.9786623 C511.381259,29.3296921 511.424461,29.7113761 511.305931,30.0533314 C509.44822,35.4659633 504.724737,38.3264358 497.577478,38.3264358 C491.124784,38.31216 484.228987,35.4448263 484.228987,27.4363222 C484.228987,21.9613859 487.670793,18.4853939 494.466892,17.1034077 L499.921496,16.0654794 C502.914659,15.4931193 505.975397,14.4751107 505.975397,11.2644937 C505.975397,6.51151456 500.438819,6.02692299 498.764996,5.99234014 C495.28331,6.06669604 490.826797,7.50318486 489.726793,11.2856307 C489.525181,12.0690292 488.544815,12.6192563 487.668578,12.4411961 L484.494849,11.7858372 C484.014082,11.6838039 483.575409,11.3708429 483.320625,10.9502268 C483.109043,10.5996507 483.048116,10.2110169 483.147815,9.85568222 C484.783974,3.97616519 490.46456,0.430557104 498.341832,0.370900849 L498.516858,0.369603853 C505.552233,0.369603853 513.069483,3.37875052 513.069483,11.8200327 C513.069483,15.2583985 511.523052,18.3314587 508.827875,20.2495069" id="path66" fill="#100F0D"></path>
                    <path d="M364.136875,107.12164 L364.136875,115.178062 C364.141306,116.399805 365.069608,117.219834 366.184013,117.218727 L402.31356,117.219834 C403.466737,117.219834 404.397254,116.379885 404.397254,115.186915 L404.397254,108.278091 C404.386177,107.12164 403.408026,105.609511 401.675491,103.208189 L382.962125,76.5149828 C389.905556,76.6796525 397.256642,75.6409495 403.566435,72.0970092 C404.992121,71.2982282 405.370974,70.1128939 405.487289,68.9556686 L405.487289,60.3592007 C405.487289,59.1738664 404.188996,57.8039427 402.826453,58.5176221 C391.705664,64.338387 376.946996,64.9738263 364.647552,58.4502271 C363.392461,57.7805923 362.076444,59.129379 362.076444,60.3147133 L362.076444,68.4831284 C362.076444,69.7864318 362.10303,72.0252982 363.420155,74.0193733 L385.10453,105.092152 L366.227216,105.096468 C365.071823,105.096468 364.147953,105.917825 364.136875,107.12164" id="path68" fill="#100F0D"></path>
                    <path d="M232.346832,56.8222322 L221.352328,56.8222322 C220.307711,56.8905126 219.471353,57.6776737 219.388272,58.6815172 L219.396026,115.040837 C219.396026,116.168515 220.346483,117.069329 221.516276,117.069329 L231.753073,117.074862 C232.825384,117.015103 233.682789,116.207248 233.755901,115.182489 L233.755901,107.818498 L233.959728,107.818498 C236.624996,114.937919 241.653112,118.253446 248.423733,118.253446 C255.297375,118.253446 259.607664,114.937919 262.686125,107.818498 C265.355823,114.937919 271.407509,118.253446 277.876819,118.253446 C282.493957,118.253446 287.515427,116.358859 290.593888,112.091611 C294.08222,107.345183 293.363284,100.470997 293.363284,94.4198274 L293.356638,58.8527162 C293.356638,57.7282477 292.407289,56.8222322 291.238603,56.8222322 L280.260716,56.8222322 C279.155172,56.8905126 278.285582,57.7715178 278.285582,58.8475149 L278.285582,88.7279874 C278.285582,91.0985453 278.488302,97.0308607 277.976517,99.2822322 C277.153453,103.080702 274.689797,104.141981 271.513853,104.141981 C268.843047,104.141981 266.071435,102.363039 264.942629,99.5229289 C263.814931,96.6720843 263.91906,91.9285338 263.91906,88.7279874 L263.91906,58.8527162 C263.91906,57.7282477 262.969711,56.8222322 261.79881,56.8222322 L250.818707,56.8222322 C249.718703,56.8905126 248.846897,57.7715178 248.846897,58.8475149 L248.832496,88.7279874 C248.832496,95.0142099 249.861603,104.260835 242.065198,104.260835 C234.164664,104.260835 234.472621,95.2498159 234.472621,88.7279874 L234.465974,58.8527162 C234.470405,57.7282477 233.519948,56.8222322 232.346832,56.8222322" id="path70" fill="#100F0D"></path>
                    <path d="M435.602815,106.753789 C427.492914,106.753789 426.982237,95.725344 426.982237,88.8441858 C426.982237,81.9670115 426.880323,67.2623813 435.503116,67.2623813 C444.020672,67.2623813 444.429435,79.1221428 444.429435,86.3555482 C444.429435,91.0985453 444.226716,96.7896107 442.789953,101.29667 C441.554802,105.211892 439.09447,106.753789 435.602815,106.753789 L435.602815,106.753789 Z M435.503116,118.253446 C451.81597,118.253446 460.641483,104.260835 460.641483,86.4779438 C460.641483,69.2777041 450.889884,55.6382259 435.503116,55.6382259 C419.494897,55.6382259 410.771297,69.6347099 410.771297,87.0680103 C410.771297,104.619612 419.593487,118.253446 435.503116,118.253446 L435.503116,118.253446 Z" id="path72" fill="#100F0D"></path>
                    <path d="M481.799672,56.8222322 L470.847263,56.8222322 C469.743935,56.8905126 468.874345,57.7715178 468.874345,58.8475149 L468.858836,115.232288 C468.949672,116.25926 469.862466,117.069329 470.965793,117.069329 L481.164927,117.074862 C482.126461,117.021743 482.915185,116.368819 483.116797,115.495671 L483.116797,106.871869 L483.325056,106.871869 C486.399086,114.581577 490.711591,118.253446 498.300845,118.253446 C503.227047,118.253446 508.052444,116.479484 511.12869,111.615751 C514,107.110905 514,99.5229289 514,94.066695 L514,58.5994037 C513.877039,57.5998761 512.985293,56.8222322 511.89969,56.8222322 L500.875276,56.8222322 C499.858353,56.88841 499.040828,57.6388303 498.917866,58.5994037 L498.917866,89.2021875 C498.917866,95.3686703 499.637909,104.384006 492.042009,104.384006 C489.375634,104.384006 486.916409,102.600858 485.683474,99.8766147 C484.142582,96.4385808 483.938754,92.9997724 483.938754,89.2021875 L483.938754,58.8527162 C483.919922,57.7282477 482.969466,56.8222322 481.799672,56.8222322" id="path74" fill="#100F0D"></path>
                    <path d="M346.417168,56.9648796 C345.688263,56.3151646 344.644754,56.2718945 343.822797,56.7093538 C340.172733,59.7405826 339.51694,61.1459192 337.521866,64.0288567 C331.487905,57.8891548 327.21528,56.0475763 319.402259,56.0475763 C310.14472,56.0475763 302.94872,61.7533601 302.94872,73.1630464 C302.94872,82.074578 307.779655,88.1365929 314.668806,91.1098331 C320.632978,93.7251823 328.963323,94.2014851 335.337366,94.9169352 L335.337366,96.3413062 C335.337366,98.9545528 335.542302,102.046205 333.998086,104.30322 C332.665453,106.323744 330.094345,107.153733 327.828978,107.153733 C323.636112,107.153733 319.91072,105.006497 318.993496,100.558312 C318.807392,99.5705149 318.080703,98.5892471 317.084828,98.5416611 L306.433728,99.6945705 C305.532013,99.8968664 304.533922,100.615415 304.794246,101.986999 C307.242392,114.901399 318.913737,118.803452 329.374302,118.803452 C334.718129,118.803452 341.713625,117.378085 345.929754,113.337701 C351.27469,108.343715 350.759582,101.688756 350.759582,94.4379765 L350.759582,77.3306955 C350.759582,72.1847666 352.900879,69.9260912 354.913677,67.1526015 C355.610457,66.1522993 355.767759,64.966965 354.87269,64.2333658 C352.628371,62.3541611 348.639332,58.8958756 346.447078,56.9406439 L346.417168,56.9648796 L346.417168,56.9648796 Z M335.337366,83.7415269 C335.337366,79.4618847 335.43928,75.8929341 333.279151,72.0926932 C331.531108,68.9997133 328.752849,67.0998142 325.667741,67.0998142 C321.456043,67.0998142 318.989065,70.3077752 318.989065,75.0642735 C318.989065,84.4145923 327.388091,86.1169541 335.337366,86.1169541 L335.337366,83.7415269 L335.337366,83.7415269 Z" id="path76" fill="#100F0D"></path>
                    <path d="M202.326573,56.9648796 C201.599884,56.3151646 200.548621,56.2718945 199.726664,56.7093538 C196.076599,59.7405826 195.423022,61.1459192 193.425733,64.0288567 C187.395095,57.8891548 183.120254,56.0475763 175.302802,56.0475763 C166.048586,56.0475763 158.850371,61.7533601 158.850371,73.1630464 C158.850371,82.074578 163.685737,88.1365929 170.574888,91.1098331 C176.540168,93.7251823 184.869405,94.2014851 191.243448,94.9169352 L191.243448,96.3413062 C191.243448,98.9545528 191.450599,102.046205 189.906384,104.30322 C188.570427,106.323744 185.997103,107.153733 183.738384,107.153733 C179.545517,107.153733 175.815694,105.006497 174.901793,100.558312 C174.711259,99.5705149 173.987892,98.5892471 172.993125,98.5416611 L162.337595,99.6945705 C161.438095,99.8968664 160.438897,100.615415 160.697004,101.986999 C163.145151,114.901399 174.817603,118.803452 185.27706,118.803452 C190.627534,118.803452 197.617491,117.378085 201.834728,113.337701 C207.181879,108.343715 206.665664,101.688756 206.665664,94.4379765 L206.665664,77.3306955 C206.665664,72.1847666 208.808069,69.9260912 210.815328,67.1526015 C211.515431,66.1522993 211.673841,64.966965 210.780987,64.2333658 C208.534453,62.3541611 204.543198,58.8958756 202.352052,56.9406439 L202.326573,56.9648796 L202.326573,56.9648796 Z M191.243448,83.7415269 C191.243448,79.4618847 191.344254,75.8929341 189.188556,72.0926932 C187.441621,68.9997133 184.661147,67.0998142 181.58047,67.0998142 C177.359909,67.0998142 174.894039,70.3077752 174.894039,75.0642735 C174.894039,84.4145923 183.290849,86.1169541 191.243448,86.1169541 L191.243448,83.7415269 L191.243448,83.7415269 Z" id="path78" fill="#100F0D"></path>
                </g>
            </g>
        </g>
        <g id="Title-Vector" sketch:type="MSLayerGroup" transform="translate(11.000000, 14.000000)" fill="#F68D11">
            <path d="M35.8955078,60 L0.537109375,60 L0.537109375,2.92822266 L35.8955078,2.92822266 L35.8955078,9.33544922 L7.65625,9.33544922 L7.65625,27.6474609 L34.4321289,27.6474609 L34.4321289,33.9755859 L7.65625,33.9755859 L7.65625,53.5927734 L35.8955078,53.5927734 L35.8955078,60 Z M79.9155273,60 L45.269043,60 L45.269043,2.92822266 L52.3881836,2.92822266 L52.3881836,53.5927734 L79.9155273,53.5927734 L79.9155273,60 Z M87.746582,60 L87.746582,2.92822266 L110.092773,2.92822266 C112.544934,2.92822266 114.772939,3.27099267 116.776855,3.95654297 C118.780772,4.64209327 120.501214,5.60448599 121.938232,6.84375 C123.375251,8.08301401 124.489254,9.57933694 125.280273,11.3327637 C126.071293,13.0861904 126.466797,15.030751 126.466797,17.1665039 C126.466797,18.6430738 126.209719,20.0800711 125.695557,21.4775391 C125.181394,22.875007 124.48267,24.1340276 123.599365,25.2546387 C122.71606,26.3752497 121.674567,27.324459 120.474854,28.1022949 C119.27514,28.8801308 117.989753,29.3876941 116.618652,29.625 L116.618652,29.9414062 C118.543467,30.1787121 120.290275,30.6928671 121.859131,31.4838867 C123.427986,32.2749063 124.766108,33.2768494 125.873535,34.4897461 C126.980963,35.7026428 127.837888,37.1132732 128.444336,38.7216797 C129.050784,40.3300862 129.354004,42.0834866 129.354004,43.9819336 C129.354004,46.4868289 128.91895,48.7346092 128.048828,50.7253418 C127.178707,52.7160744 125.913094,54.3969658 124.251953,55.7680664 C122.590812,57.139167 120.560559,58.1872522 118.161133,58.9123535 C115.761707,59.6374548 113.045914,60 110.013672,60 L87.746582,60 Z M94.8657227,27.5288086 L106.256348,27.5288086 C110.501486,27.5288086 113.731434,26.7180257 115.946289,25.0964355 C118.161144,23.4748454 119.268555,21.108414 119.268555,17.9970703 C119.268555,15.1493998 118.339121,12.9741286 116.480225,11.4711914 C114.621329,9.9682542 111.951678,9.21679688 108.471191,9.21679688 L94.8657227,9.21679688 L94.8657227,27.5288086 Z M108.945801,53.7114258 C113.270041,53.7114258 116.532948,52.8610925 118.734619,51.1604004 C120.93629,49.4597083 122.037109,46.9482588 122.037109,43.6259766 C122.037109,40.3036943 120.890148,37.81202 118.596191,36.1508789 C116.302235,34.4897378 112.861351,33.6591797 108.273438,33.6591797 L94.8657227,33.6591797 L94.8657227,53.7114258 L108.945801,53.7114258 Z M180.29541,60.9492188 C176.36668,60.9492188 172.813737,60.257087 169.636475,58.8728027 C166.459213,57.4885185 163.756603,55.5175909 161.528564,52.9599609 C159.300526,50.402331 157.586676,47.3042174 156.386963,43.6655273 C155.18725,40.0268373 154.587402,35.9531475 154.587402,31.4443359 C154.587402,26.9618917 155.193842,22.9079771 156.406738,19.2824707 C157.619635,15.6569643 159.346668,12.5588507 161.587891,9.98803711 C163.829113,7.41722347 166.531722,5.43970419 169.695801,4.05541992 C172.859879,2.67113566 176.393047,1.97900391 180.29541,1.97900391 C183.406754,1.97900391 186.300524,2.43383334 188.976807,3.34350586 C191.65309,4.25317838 194.032704,5.53197418 196.115723,7.17993164 C198.198741,8.8278891 199.919183,10.8185918 201.2771,13.1520996 C202.635017,15.4856074 203.538084,18.0761576 203.986328,20.9238281 L196.788086,20.9238281 C196.339842,19.0517485 195.608159,17.3576736 194.593018,15.8415527 C193.577876,14.3254319 192.351814,13.0268609 190.914795,11.9458008 C189.477776,10.8647407 187.85621,10.0275909 186.050049,9.43432617 C184.243887,8.84106149 182.325694,8.54443359 180.29541,8.54443359 C177.500474,8.54443359 174.96925,9.08495553 172.70166,10.1660156 C170.434071,11.2470757 168.502694,12.7895408 166.907471,14.793457 C165.312248,16.7973733 164.079594,19.2033551 163.209473,22.0114746 C162.339351,24.8195941 161.904297,27.9638498 161.904297,31.4443359 C161.904297,34.9511894 162.332759,38.1152203 163.189697,40.9365234 C164.046635,43.7578266 165.279289,46.1638084 166.887695,48.154541 C168.496102,50.1452736 170.434071,51.6811469 172.70166,52.762207 C174.96925,53.8432671 177.513658,54.3837891 180.334961,54.3837891 C182.417979,54.3837891 184.355948,54.139895 186.148926,53.6520996 C187.941903,53.1643042 189.537102,52.4458055 190.93457,51.496582 C192.332038,50.5473585 193.525142,49.3938056 194.513916,48.0358887 C195.50269,46.6779717 196.26074,45.128915 196.788086,43.3886719 L203.986328,43.3886719 C202.667962,49.0576455 199.978536,53.4015962 195.917969,56.4206543 C191.857402,59.4397124 186.649934,60.9492188 180.29541,60.9492188 L180.29541,60.9492188 Z M211.896484,0.436523438 L218.77832,0.436523438 L218.77832,60 L211.896484,60 L211.896484,0.436523438 Z M242.429687,54.4233398 C244.169931,54.4233398 245.778313,54.1596706 247.254883,53.6323242 C248.731453,53.1049778 250.003657,52.366704 251.071533,51.4174805 C252.13941,50.468257 252.976559,49.341071 253.583008,48.0358887 C254.189456,46.7307064 254.492676,45.3134842 254.492676,43.7841797 L254.492676,40.3432617 L243.339355,41.0551758 C240.122543,41.2661143 237.696786,41.9450626 236.062012,43.092041 C234.427238,44.2390194 233.609863,45.84081 233.609863,47.8974609 C233.609863,48.8994191 233.814207,49.7958945 234.2229,50.5869141 C234.631594,51.3779336 235.22485,52.0634737 236.002686,52.6435547 C236.780521,53.2236357 237.709956,53.6652817 238.791016,53.9685059 C239.872076,54.27173 241.084954,54.4233398 242.429687,54.4233398 L242.429687,54.4233398 Z M240.966309,60.3955078 C238.804188,60.3955078 236.839853,60.0988799 235.073242,59.5056152 C233.306632,58.9123505 231.790534,58.068609 230.524902,56.9743652 C229.259271,55.8801215 228.283695,54.5617753 227.598145,53.0192871 C226.912594,51.4767989 226.569824,49.7563571 226.569824,47.8579102 C226.569824,44.1664854 227.927721,41.2793073 230.643555,39.1962891 C233.359389,37.1132708 237.327611,35.9135758 242.54834,35.597168 L254.492676,34.8852539 L254.492676,31.3256836 C254.492676,28.6625843 253.655526,26.6257395 251.981201,25.2150879 C250.306876,23.8044363 247.887711,23.0991211 244.723633,23.0991211 C243.484369,23.0991211 242.337408,23.2507309 241.282715,23.5539551 C240.228022,23.8571793 239.285405,24.2922335 238.454834,24.8591309 C237.624263,25.4260282 236.938723,26.11816 236.398193,26.9355469 C235.857663,27.7529338 235.481935,28.6625926 235.270996,29.6645508 L228.666016,29.6645508 C228.71875,27.8715731 229.166988,26.1972734 230.010742,24.6416016 C230.854496,23.0859297 232.001458,21.7412166 233.45166,20.6074219 C234.901863,19.4736271 236.595938,18.5837435 238.533936,17.9377441 C240.471934,17.2917448 242.561512,16.96875 244.802734,16.96875 C247.333997,16.96875 249.614736,17.2917448 251.64502,17.9377441 C253.675303,18.5837435 255.41552,19.5065858 256.865723,20.7062988 C258.315925,21.9060119 259.429928,23.3561927 260.207764,25.0568848 C260.9856,26.7575769 261.374512,28.6494036 261.374512,30.7324219 L261.374512,60 L254.848633,60 L254.848633,52.6040039 L254.69043,52.6040039 C254.083981,53.7905333 253.306157,54.8649854 252.356934,55.8273926 C251.40771,56.7897997 250.33985,57.6071744 249.15332,58.279541 C247.966791,58.9519077 246.681403,59.4726544 245.297119,59.8417969 C243.912835,60.2109393 242.469246,60.3955078 240.966309,60.3955078 L240.966309,60.3955078 Z M269.798828,29.269043 C269.798828,27.4760653 270.18774,25.8281325 270.965576,24.3251953 C271.743412,22.8222581 272.831048,21.5302788 274.228516,20.4492188 C275.625984,19.3681587 277.2871,18.5244171 279.211914,17.9179688 C281.136728,17.3115204 283.259266,17.0083008 285.57959,17.0083008 C287.74171,17.0083008 289.752188,17.3115204 291.611084,17.9179688 C293.46998,18.5244171 295.091546,19.3747504 296.47583,20.4689941 C297.860114,21.5632379 298.954342,22.8552172 299.758545,24.3449707 C300.562748,25.8347242 301.004394,27.4496983 301.083496,29.1899414 L294.478516,29.1899414 C294.267577,27.1860251 293.344735,25.6040097 291.709961,24.4438477 C290.075187,23.2836856 287.95265,22.7036133 285.342285,22.7036133 C284.023919,22.7036133 282.824224,22.8552231 281.743164,23.1584473 C280.662104,23.4616714 279.739262,23.8835422 278.974609,24.4240723 C278.209957,24.9646023 277.616701,25.6171837 277.194824,26.3818359 C276.772947,27.1464882 276.562012,27.9902298 276.562012,28.9130859 C276.562012,30.3632885 277.142084,31.5827587 278.302246,32.5715332 C279.462408,33.5603077 281.281726,34.3579071 283.760254,34.9643555 L290.246582,36.5859375 C292.408702,37.1396512 294.234612,37.7526822 295.724365,38.4250488 C297.214119,39.0974155 298.420406,39.8818315 299.343262,40.7783203 C300.266118,41.6748092 300.931883,42.7097109 301.340576,43.8830566 C301.74927,45.0564024 301.953613,46.4208907 301.953613,47.9765625 C301.953613,49.7959075 301.538334,51.4636155 300.707764,52.9797363 C299.877193,54.4958572 298.717048,55.8076117 297.227295,56.9150391 C295.737541,58.0224665 293.957774,58.8793915 291.887939,59.4858398 C289.818105,60.0922882 287.557141,60.3955078 285.10498,60.3955078 C282.811024,60.3955078 280.695078,60.0988799 278.75708,59.5056152 C276.819082,58.9123505 275.125007,58.068609 273.674805,56.9743652 C272.224602,55.8801215 271.057866,54.5749588 270.174561,53.0588379 C269.291255,51.542717 268.770509,49.8618256 268.612305,48.0161133 L275.533691,48.0161133 C275.902834,50.2046008 276.937736,51.865717 278.638428,52.9995117 C280.33912,54.1333065 282.652817,54.7001953 285.57959,54.7001953 C287.029792,54.7001953 288.341547,54.5551772 289.514893,54.2651367 C290.688238,53.9750962 291.68359,53.5598172 292.500977,53.0192871 C293.318363,52.4787571 293.944578,51.819584 294.379639,51.041748 C294.814699,50.2639121 295.032227,49.4003954 295.032227,48.4511719 C295.032227,46.9482347 294.531255,45.7551314 293.529297,44.8718262 C292.527339,43.988521 290.813489,43.2304719 288.387695,42.5976562 L280.912598,40.659668 C273.503381,38.7348537 269.798828,34.9380166 269.798828,29.269043 L269.798828,29.269043 Z M308.716797,29.269043 C308.716797,27.4760653 309.105709,25.8281325 309.883545,24.3251953 C310.661381,22.8222581 311.749016,21.5302788 313.146484,20.4492188 C314.543952,19.3681587 316.205069,18.5244171 318.129883,17.9179688 C320.054697,17.3115204 322.177234,17.0083008 324.497559,17.0083008 C326.659679,17.0083008 328.670157,17.3115204 330.529053,17.9179688 C332.387949,18.5244171 334.009515,19.3747504 335.393799,20.4689941 C336.778083,21.5632379 337.87231,22.8552172 338.676514,24.3449707 C339.480717,25.8347242 339.922363,27.4496983 340.001465,29.1899414 L333.396484,29.1899414 C333.185546,27.1860251 332.262703,25.6040097 330.62793,24.4438477 C328.993156,23.2836856 326.870619,22.7036133 324.260254,22.7036133 C322.941888,22.7036133 321.742193,22.8552231 320.661133,23.1584473 C319.580073,23.4616714 318.65723,23.8835422 317.892578,24.4240723 C317.127926,24.9646023 316.53467,25.6171837 316.112793,26.3818359 C315.690916,27.1464882 315.47998,27.9902298 315.47998,28.9130859 C315.47998,30.3632885 316.060053,31.5827587 317.220215,32.5715332 C318.380377,33.5603077 320.199695,34.3579071 322.678223,34.9643555 L329.164551,36.5859375 C331.326671,37.1396512 333.15258,37.7526822 334.642334,38.4250488 C336.132088,39.0974155 337.338374,39.8818315 338.26123,40.7783203 C339.184087,41.6748092 339.849851,42.7097109 340.258545,43.8830566 C340.667238,45.0564024 340.871582,46.4208907 340.871582,47.9765625 C340.871582,49.7959075 340.456303,51.4636155 339.625732,52.9797363 C338.795162,54.4958572 337.635017,55.8076117 336.145264,56.9150391 C334.65551,58.0224665 332.875743,58.8793915 330.805908,59.4858398 C328.736074,60.0922882 326.47511,60.3955078 324.022949,60.3955078 C321.728992,60.3955078 319.613047,60.0988799 317.675049,59.5056152 C315.737051,58.9123505 314.042976,58.068609 312.592773,56.9743652 C311.142571,55.8801215 309.975834,54.5749588 309.092529,53.0588379 C308.209224,51.542717 307.688477,49.8618256 307.530273,48.0161133 L314.45166,48.0161133 C314.820803,50.2046008 315.855704,51.865717 317.556396,52.9995117 C319.257089,54.1333065 321.570786,54.7001953 324.497559,54.7001953 C325.947761,54.7001953 327.259516,54.5551772 328.432861,54.2651367 C329.606207,53.9750962 330.601558,53.5598172 331.418945,53.0192871 C332.236332,52.4787571 332.862547,51.819584 333.297607,51.041748 C333.732668,50.2639121 333.950195,49.4003954 333.950195,48.4511719 C333.950195,46.9482347 333.449224,45.7551314 332.447266,44.8718262 C331.445307,43.988521 329.731457,43.2304719 327.305664,42.5976562 L319.830566,40.659668 C312.42135,38.7348537 308.716797,34.9380166 308.716797,29.269043 L308.716797,29.269043 Z M348.742188,17.3642578 L355.624023,17.3642578 L355.624023,60 L348.742188,60 L348.742188,17.3642578 Z M352.183105,10.4824219 C351.576657,10.4824219 351.009768,10.3703624 350.482422,10.1462402 C349.955075,9.92211802 349.493654,9.61230667 349.098145,9.21679688 C348.702635,8.82128708 348.392823,8.35986592 348.168701,7.83251953 C347.944579,7.30517314 347.83252,6.73828428 347.83252,6.13183594 C347.83252,5.52538759 347.944579,4.95849873 348.168701,4.43115234 C348.392823,3.90380596 348.702635,3.44238479 349.098145,3.046875 C349.493654,2.65136521 349.955075,2.34155385 350.482422,2.11743164 C351.009768,1.89330943 351.576657,1.78125 352.183105,1.78125 C352.789554,1.78125 353.356443,1.89330943 353.883789,2.11743164 C354.411135,2.34155385 354.872557,2.65136521 355.268066,3.046875 C355.663576,3.44238479 355.973388,3.90380596 356.19751,4.43115234 C356.421632,4.95849873 356.533691,5.52538759 356.533691,6.13183594 C356.533691,6.73828428 356.421632,7.30517314 356.19751,7.83251953 C355.973388,8.35986592 355.663576,8.82128708 355.268066,9.21679688 C354.872557,9.61230667 354.411135,9.92211802 353.883789,10.1462402 C353.356443,10.3703624 352.789554,10.4824219 352.183105,10.4824219 L352.183105,10.4824219 Z M393.830078,31.246582 C393.61914,30.1127873 393.223636,29.0515186 392.643555,28.0627441 C392.063474,27.0739697 391.305425,26.2104529 390.369385,25.472168 C389.433345,24.733883 388.332526,24.1538107 387.066895,23.7319336 C385.801263,23.3100565 384.364266,23.0991211 382.755859,23.0991211 C380.88378,23.0991211 379.183113,23.468258 377.653809,24.206543 C376.124504,24.9448279 374.81275,25.9929131 373.718506,27.3508301 C372.624262,28.708747 371.773929,30.350088 371.16748,32.2749023 C370.561032,34.1997167 370.257812,36.3354375 370.257812,38.6821289 C370.257812,41.1079223 370.561032,43.2831935 371.16748,45.2080078 C371.773929,47.1328221 372.630854,48.7675714 373.738281,50.1123047 C374.845709,51.457038 376.170647,52.485348 377.713135,53.1972656 C379.255623,53.9091832 380.962881,54.2651367 382.834961,54.2651367 C385.814468,54.2651367 388.253408,53.5927802 390.151855,52.2480469 C392.050302,50.9033136 393.302731,48.9389778 393.90918,46.3549805 L400.672363,46.3549805 C400.382323,48.4379987 399.742925,50.3364172 398.75415,52.050293 C397.765376,53.7641687 396.493172,55.2407165 394.9375,56.4799805 C393.381828,57.7192445 391.575694,58.6816372 389.519043,59.3671875 C387.462392,60.0527378 385.221204,60.3955078 382.79541,60.3955078 C379.868638,60.3955078 377.205578,59.8945363 374.806152,58.8925781 C372.406726,57.89062 370.350106,56.4470309 368.63623,54.5617676 C366.922355,52.6765042 365.597417,50.3957653 364.661377,47.7194824 C363.725337,45.0431995 363.257324,42.0307785 363.257324,38.6821289 C363.257324,35.4125813 363.725337,32.4397106 364.661377,29.7634277 C365.597417,27.0871448 366.915763,24.7998142 368.616455,22.9013672 C370.317147,21.0029202 372.360584,19.5395559 374.746826,18.5112305 C377.133069,17.482905 379.789536,16.96875 382.716309,16.96875 C385.353041,16.96875 387.726064,17.3642539 389.835449,18.1552734 C391.944835,18.946293 393.764153,20.00097 395.293457,21.3193359 C396.822762,22.6377019 398.03564,24.1538 398.932129,25.8676758 C399.828618,27.5815515 400.382323,29.3745024 400.593262,31.246582 L393.830078,31.246582 Z" id="Application-Copy" sketch:type="MSShapeGroup"></path>
        </g>
    </g>
</svg>