<?xml version="1.0" encoding="UTF-8" standalone="no"?>
<svg width="535px" height="294px" viewBox="0 0 535 294" version="1.1" xmlns="http://www.w3.org/2000/svg" xmlns:xlink="http://www.w3.org/1999/xlink" xmlns:sketch="http://www.bohemiancoding.com/sketch/ns">
    <!-- Generator: Sketch 3.3.1 (12002) - http://www.bohemiancoding.com/sketch -->
    <title>ELBv1</title>
    <desc>Created with Sketch.</desc>
    <defs></defs>
    <g id="Page-1" stroke="none" stroke-width="1" fill="none" fill-rule="evenodd" sketch:type="MSPage">
        <g id="AWS-logo" sketch:type="MSLayerGroup" transform="translate(11.000000, 91.000000)">
            <g id="g10" transform="translate(257.000000, 96.278670) scale(1, -1) translate(-257.000000, -96.278670) " sketch:type="MSShapeGroup">
                <g id="g12">
                    <path d="M142.864306,126.158257 L112.991379,136.118119 L112.991379,179.277523 L142.900862,170.424312 L142.864306,126.158257" id="path14" fill="#F68D11"></path>
                    <path d="M150.655172,170.424312 L180.564655,179.277523 L180.460526,136.147999 L150.655172,126.158257 L150.655172,170.424312" id="path16" fill="#F68D11"></path>
                    <path d="M174.471983,183.950912 L146.596345,192.557339 L119.084052,183.950912 L146.636224,176.572867 L174.471983,183.950912" id="path18" fill="#F68D11"></path>
                    <path d="M218.191892,126.158257 L188.318966,136.118119 L188.318966,179.277523 L218.228448,170.424312 L218.191892,126.158257" id="path20" fill="#F68D11"></path>
                    <path d="M225.982759,170.424312 L255.892241,179.277523 L255.788112,136.147999 L225.982759,126.158257 L225.982759,170.424312" id="path22" fill="#F68D11"></path>
                    <path d="M249.799569,183.950912 L221.923931,192.557339 L194.411638,183.950912 L221.96381,176.572867 L249.799569,183.950912" id="path24" fill="#F68D11"></path>
                    <path d="M29.9094828,107.345183 L0,116.198394 L0,73.0389908 L29.8731483,63.0791284 L29.9094828,107.345183" id="path26" fill="#F68D11"></path>
                    <path d="M37.6637931,107.345183 L67.5732759,116.198394 L67.4694789,73.0679851 L37.6637931,63.0791284 L37.6637931,107.345183" id="path28" fill="#F68D11"></path>
                    <path d="M61.4806034,120.871783 L33.6048547,129.478211 L6.09267241,120.871783 L33.6451772,113.493739 L61.4806034,120.871783" id="path30" fill="#F68D11"></path>
                    <path d="M105.200734,63.0791284 L75.3275862,73.0389908 L75.3275862,116.198394 L105.237069,107.345183 L105.200734,63.0791284" id="path32" fill="#F68D11"></path>
                    <path d="M112.991379,107.345183 L142.900862,116.198394 L142.796733,73.0679851 L112.991379,63.0791284 L112.991379,107.345183" id="path34" fill="#F68D11"></path>
                    <path d="M136.80819,120.871783 L108.932441,129.478211 L81.4202586,120.871783 L108.972763,113.493739 L136.80819,120.871783" id="path36" fill="#F68D11"></path>
                    <path d="M67.5369414,0 L37.6637931,9.95986239 L37.6637931,53.1192661 L67.5732759,44.266055 L67.5369414,0" id="path38" fill="#F68D11"></path>
                    <path d="M75.3275862,44.266055 L105.237069,53.1192661 L105.133272,9.98882345 L75.3275862,0 L75.3275862,44.266055" id="path40" fill="#F68D11"></path>
                    <path d="M99.1443966,57.7926548 L71.2686478,66.3990826 L43.7564655,57.7926548 L71.3089703,50.4144994 L99.1443966,57.7926548" id="path42" fill="#F68D11"></path>
                    <path d="M199.828578,38.1518062 L197.630784,38.1440596 C196.824336,38.1440596 195.796336,37.5998085 195.543767,36.7174753 L188.876168,13.2508222 L182.281681,36.6664587 C182.083392,37.4005006 181.391043,38.1440596 180.449448,38.1440596 L177.847323,38.1440596 C176.910159,38.1440596 176.226672,37.3905407 176.037246,36.6512976 L169.902478,13.4791244 L163.563884,36.7231193 C163.31353,37.5730275 162.260052,38.1440596 161.433664,38.1440596 L158.271013,38.1495929 C157.59528,38.1495929 156.967181,37.8595396 156.630422,37.392754 C156.402224,37.0762517 156.339082,36.7174753 156.444319,36.4053997 L166.236905,1.77193698 C166.452918,1.04353794 167.084341,0.309948704 168.008211,0.309948704 L171.153138,0.309948704 C172.002789,0.309948704 172.747203,0.928550224 172.962108,1.80608825 L178.989422,24.8763056 L185.548461,1.77971674 C185.745642,1.07250122 186.380388,0.309948704 187.30869,0.309948704 L190.402659,0.309948704 C191.263388,0.309948704 191.987862,0.90736781 192.200552,1.78274897 L201.62647,36.3911239 C201.737246,36.7244472 201.672996,37.0948435 201.448121,37.4070298 C201.116901,37.8665115 200.496556,38.1518062 199.828578,38.1518062" id="path44" fill="#100F0D"></path>
                    <path d="M227.021836,23.4476187 L210.407672,23.4476187 C210.789849,28.1055143 213.817353,32.9349409 218.946276,33.1208584 C224.404203,32.9427982 226.901091,28.223926 227.021836,23.4476187 L227.021836,23.4476187 Z M218.934091,38.3994748 C207.711388,38.3994748 202.60019,28.4876411 202.60019,19.2790843 C202.60019,7.78633268 208.954293,0.360958693 218.787866,0.360958693 C225.825457,0.360958693 231.190332,3.91305287 233.507763,10.1193751 C233.631832,10.4742782 233.59306,10.8594482 233.399203,11.2048452 C233.16325,11.6241554 232.715716,11.940547 232.186207,12.0568561 L229.07119,12.6521239 C228.234832,12.7831514 227.276621,12.2881462 226.959802,11.5701508 C225.446603,8.12178085 222.688284,6.16525442 219.226539,6.06324329 C215.895509,6.16612867 212.836987,8.14296216 211.435672,11.0963933 C210.296897,13.5088933 210.128517,15.8869765 210.109685,18.3051204 L232.664759,18.312867 C233.137772,18.312867 233.627401,18.5208068 233.973022,18.8706193 C234.262147,19.1606726 234.419448,19.5211089 234.416125,19.8820986 C234.360737,28.8347976 230.265353,38.3994748 218.934091,38.3994748 L218.934091,38.3994748 Z" id="path46" fill="#100F0D"></path>
                    <path d="M262.164371,19.2237517 C262.164371,17.1034077 261.779978,6.51584157 254.250543,6.24480052 C251.727069,6.34120092 249.177009,7.82307351 247.752431,10.0139002 C246.703384,11.6708561 246.090793,13.9615138 245.933491,16.7956479 L245.933491,23.0248779 C246.056453,27.7968693 249.4185,33.0335436 254.226172,33.2362821 C261.781086,32.9384822 262.164371,21.5123068 262.164371,19.2237517 L262.164371,19.2237517 Z M255.431414,38.7207357 L254.834332,38.7207357 C251.10894,38.7207357 248.181134,37.1748544 245.933491,34.0061795 L245.930168,48.6062311 C245.930168,49.4262597 245.082733,50.1732494 244.146677,50.1732494 L240.903159,50.1732494 C240.055724,50.1732494 239.107483,49.5027294 239.105267,48.6062311 L239.105267,3.02988974 C239.108591,2.20205917 239.956026,1.44989037 240.890974,1.44989037 L241.843647,1.4550695 C242.743147,1.4550695 243.383431,2.17915149 243.599444,2.85178526 L244.614151,6.06885401 C246.971461,2.72469742 250.521828,0.76039012 254.32144,0.76039012 L254.903013,0.76039012 C264.911612,0.76039012 269.391388,10.4855218 269.391388,20.1233486 C269.391388,24.920793 268.207194,29.507863 266.14344,32.7080774 C263.758435,36.4165768 259.653082,38.7207357 255.431414,38.7207357 L255.431414,38.7207357 Z" id="path48" fill="#100F0D"></path>
                    <path d="M304.907237,20.2495069 C302.798065,21.763406 300.262405,22.2691456 297.722315,22.7758813 L292.8515,23.6780235 C289.356522,24.2520436 287.333754,25.1883813 287.333754,28.2692987 C287.333754,31.5261737 290.712418,32.7711565 293.577082,32.8485115 C297.075384,32.7603114 299.70631,31.2010396 300.983556,28.4586468 C301.287082,27.8123624 301.959491,27.3775591 302.658487,27.3775591 C302.778125,27.3775591 302.899978,27.3909495 303.015185,27.4159599 L306.054875,28.0869226 C306.551151,28.1962597 307.014194,28.5360017 307.262332,28.9778876 C307.460621,29.3284748 307.503823,29.7113761 307.385293,30.0533314 C305.525366,35.4659633 300.802991,38.3264358 293.659056,38.3264358 C287.204147,38.31216 280.306134,35.4448263 280.306134,27.4363222 C280.306134,21.9627139 283.749047,18.4867219 290.546254,17.1034077 L295.998642,16.0654794 C298.991806,15.4931193 302.052543,14.4751107 302.052543,11.2644937 C302.052543,6.51151456 296.515966,6.02692299 294.842142,5.99234014 C291.086841,6.07318102 286.835263,7.74655963 285.802832,11.2900573 C285.595681,12.0690292 284.614207,12.6201416 283.753478,12.4411961 L280.574211,11.7858372 C280.095659,11.6851319 279.658095,11.3742735 279.40331,10.9545538 C279.189513,10.6048299 279.128586,10.213186 279.227177,9.85568222 C280.867767,3.97616519 286.549461,0.430557104 294.425625,0.370900849 L294.600651,0.369603853 C301.634918,0.369603853 309.15106,3.37875052 309.15106,11.8200327 C309.15106,15.2561852 307.603522,18.3284708 304.907237,20.2495069" id="path50" fill="#100F0D"></path>
                    <path d="M337.063254,23.4134232 L320.444659,23.4134232 C320.824621,28.0756347 323.852125,32.9072747 328.981047,33.0845602 C334.436759,32.9115906 336.93697,28.1932718 337.063254,23.4134232 L337.063254,23.4134232 Z M328.972185,38.3674925 C317.747267,38.3674925 312.634961,28.4552162 312.634961,19.2471021 C312.634961,7.75520258 318.990172,0.330698417 328.824853,0.330698417 C335.863552,0.330698417 341.228427,3.88321755 343.548073,10.0882561 C343.671034,10.4435908 343.632263,10.829624 343.437297,11.1758509 C343.201345,11.5956038 342.752703,11.9121061 342.224302,12.0262018 L339.104853,12.6214696 C338.374841,12.7398813 337.35681,12.3625132 336.997897,11.5381686 C335.483591,8.09195659 332.724164,6.13543016 329.265741,6.02909203 C325.931388,6.13543016 322.873974,8.11184312 321.478198,11.0643558 C320.337207,13.4712672 320.16772,15.851453 320.151103,18.2753515 L342.703961,18.2808847 C343.173651,18.2808847 343.659957,18.4876072 344.005578,18.8350958 C344.29581,19.1264771 344.453112,19.4870241 344.449789,19.8501164 C344.397724,28.80193 340.305664,38.3674925 328.972185,38.3674925 L328.972185,38.3674925 Z" id="path52" fill="#100F0D"></path>
                    <path d="M365.747556,37.9460797 C365.307776,37.9944404 364.884612,38.0177907 364.473634,38.0177907 C360.688422,38.0177907 357.614392,35.9618538 355.480849,32.0341267 L355.488603,35.4738205 C355.48528,36.306797 354.653353,37.0386256 353.708435,37.0386256 L350.891405,37.0386256 C349.967534,37.0386256 349.152224,36.3038091 349.145578,35.46043 L349.141147,2.04730505 C349.141147,1.20867357 349.956457,0.472488125 350.886974,0.472488125 L354.173694,0.47378512 C355.028884,0.47378512 355.991526,1.14425539 355.99928,2.04730505 L356.001496,18.8926416 C356.001496,21.6704472 356.260711,23.763125 357.588914,26.2389255 C359.486504,29.7654914 362.136263,31.4955195 365.689953,31.5231858 C366.580591,31.5296044 367.362668,32.3064736 367.362668,33.1861508 L367.362668,36.3115556 C367.362668,37.1294817 366.652595,37.8474771 365.747556,37.9460797" id="path54" fill="#100F0D"></path>
                    <path d="M400.255345,38.6022133 L397.659866,38.600996 C396.846772,38.600996 395.804371,38.0177907 395.551802,37.1623492 L387.138375,10.7457619 L378.546599,37.1359002 C378.292922,38.0121468 377.248306,38.600996 376.43078,38.600996 L372.72422,38.6044266 C372.044056,38.6044266 371.386047,38.3014255 371.049289,37.8332013 C370.823306,37.5197976 370.761272,37.1644518 370.873155,36.8328991 L382.632013,1.9854875 C382.857996,1.29598836 383.457293,0.490212253 384.405534,0.490212253 L388.890849,0.490212253 C389.713914,0.490212253 390.388539,1.05002181 390.697603,1.98851972 L402.103086,36.8216112 C402.217185,37.1523893 402.156259,37.5089524 401.931384,37.8232414 C401.592409,38.2957815 400.935509,38.6022133 400.255345,38.6022133" id="path56" fill="#100F0D"></path>
                    <path d="M408.782871,51.9970109 C406.392328,51.9970109 404.448211,50.0496365 404.448211,47.6534042 C404.448211,45.2577253 406.392328,43.3111256 408.782871,43.3111256 C411.174522,43.3111256 413.120853,45.2577253 413.120853,47.6534042 C413.120853,50.0496365 411.174522,51.9970109 408.782871,51.9970109" id="path58" fill="#100F0D"></path>
                    <path d="M410.56747,38.814469 L407.008241,38.8180103 C406.04006,38.8180103 405.158284,38.0354971 405.158284,37.1778423 L405.14056,1.69975011 C405.14056,1.27049111 405.362112,0.844254375 405.745397,0.527820694 C406.096556,0.240351399 406.545198,0.0743531393 406.996056,0.0743531393 L410.580763,0.068733453 L410.582978,0.068733453 C411.56556,0.0773791669 412.428504,0.838634799 412.428504,1.69758108 L412.428504,37.1778423 C412.428504,38.0497729 411.557806,38.814469 410.56747,38.814469" id="path60" fill="#100F0D"></path>
                    <path d="M443.830138,14.7560894 L440.858022,14.7448016 C440.02831,14.7448016 439.332638,14.2468085 439.023573,13.3818498 C437.93797,8.70277282 435.478746,6.27808859 431.75003,6.1708762 C424.487565,6.38658469 423.923716,16.4990654 423.923716,19.5933733 C423.923716,25.76384 426.062797,32.422672 432.034724,32.5986296 C435.639371,32.4879644 438.261435,29.9059255 439.047944,25.6985476 C439.196384,24.8400075 439.856608,24.1902924 440.758323,24.077414 L443.938698,24.0463171 C444.889155,24.1492357 445.634677,24.8676737 445.62803,25.7586388 C444.502547,33.3621084 439.228509,38.2767471 432.179841,38.2767471 L431.936134,38.2702179 L431.660302,38.2767471 C421.409103,38.2767471 416.819659,28.7189312 416.819659,19.2471021 C416.819659,10.5628989 420.68906,0.422775132 431.602698,0.422775132 L432.12556,0.422775132 C438.998095,0.422775132 444.185728,5.23541273 445.671233,13.0385665 C445.704466,13.4104014 445.575966,13.7821256 445.312319,14.0843521 C444.971129,14.475996 444.42722,14.7270952 443.830138,14.7560894" id="path62" fill="#100F0D"></path>
                    <path d="M473.183526,23.4134232 L456.562716,23.4134232 C456.942677,28.0769627 459.971289,32.9072747 465.103534,33.0845602 C470.560353,32.9115906 473.059457,28.1932718 473.183526,23.4134232 L473.183526,23.4134232 Z M465.092457,38.3674925 C453.868647,38.3674925 448.757448,28.4552162 448.757448,19.2471021 C448.757448,7.75520258 455.112659,0.330698417 464.947341,0.330698417 C471.982716,0.330698417 477.345375,3.88105958 479.667237,10.0869502 C479.787983,10.444454 479.748103,10.8317819 479.554246,11.1758509 C479.31497,11.5987024 478.879621,11.9077901 478.342358,12.0262018 L475.227341,12.6214696 C474.494004,12.7398813 473.479297,12.3625132 473.120384,11.5381686 C471.601647,8.09195659 468.841112,6.13543016 465.383797,6.02779725 C462.050552,6.13543016 458.994246,8.11184312 457.59847,11.0643558 C456.456371,13.4748085 456.286884,15.8549943 456.269159,18.2753515 L478.824233,18.2787821 C479.298353,18.2787821 479.787983,18.4876072 480.134711,18.8385264 C480.422728,19.1316783 480.577815,19.492668 480.572276,19.8501164 C480.520211,28.80193 476.427043,38.3674925 465.092457,38.3674925 L465.092457,38.3674925 Z" id="path64" fill="#100F0D"></path>
                    <path d="M508.827875,20.2495069 C506.715379,21.7647339 504.176397,22.270031 501.640737,22.7758813 L496.769922,23.6780235 C493.278267,24.2520436 491.256608,25.1883813 491.256608,28.2692987 C491.256608,32.470258 496.475259,32.8212878 497.493289,32.8485115 C500.994914,32.7603114 503.625841,31.2010396 504.900871,28.4573188 C505.206612,27.8111451 505.881237,27.3775591 506.581341,27.3775591 C506.702086,27.3775591 506.822832,27.3909495 506.940254,27.4159599 L509.977728,28.0869226 C510.474004,28.1962597 510.93594,28.5373297 511.184078,28.9786623 C511.381259,29.3296921 511.424461,29.7113761 511.305931,30.0533314 C509.44822,35.4659633 504.724737,38.3264358 497.577478,38.3264358 C491.124784,38.31216 484.228987,35.4448263 484.228987,27.4363222 C484.228987,21.9613859 487.670793,18.4853939 494.466892,17.1034077 L499.921496,16.0654794 C502.914659,15.4931193 505.975397,14.4751107 505.975397,11.2644937 C505.975397,6.51151456 500.438819,6.02692299 498.764996,5.99234014 C495.28331,6.06669604 490.826797,7.50318486 489.726793,11.2856307 C489.525181,12.0690292 488.544815,12.6192563 487.668578,12.4411961 L484.494849,11.7858372 C484.014082,11.6838039 483.575409,11.3708429 483.320625,10.9502268 C483.109043,10.5996507 483.048116,10.2110169 483.147815,9.85568222 C484.783974,3.97616519 490.46456,0.430557104 498.341832,0.370900849 L498.516858,0.369603853 C505.552233,0.369603853 513.069483,3.37875052 513.069483,11.8200327 C513.069483,15.2583985 511.523052,18.3314587 508.827875,20.2495069" id="path66" fill="#100F0D"></path>
                    <path d="M364.136875,107.12164 L364.136875,115.178062 C364.141306,116.399805 365.069608,117.219834 366.184013,117.218727 L402.31356,117.219834 C403.466737,117.219834 404.397254,116.379885 404.397254,115.186915 L404.397254,108.278091 C404.386177,107.12164 403.408026,105.609511 401.675491,103.208189 L382.962125,76.5149828 C389.905556,76.6796525 397.256642,75.6409495 403.566435,72.0970092 C404.992121,71.2982282 405.370974,70.1128939 405.487289,68.9556686 L405.487289,60.3592007 C405.487289,59.1738664 404.188996,57.8039427 402.826453,58.5176221 C391.705664,64.338387 376.946996,64.9738263 364.647552,58.4502271 C363.392461,57.7805923 362.076444,59.129379 362.076444,60.3147133 L362.076444,68.4831284 C362.076444,69.7864318 362.10303,72.0252982 363.420155,74.0193733 L385.10453,105.092152 L366.227216,105.096468 C365.071823,105.096468 364.147953,105.917825 364.136875,107.12164" id="path68" fill="#100F0D"></path>
                    <path d="M232.346832,56.8222322 L221.352328,56.8222322 C220.307711,56.8905126 219.471353,57.6776737 219.388272,58.6815172 L219.396026,115.040837 C219.396026,116.168515 220.346483,117.069329 221.516276,117.069329 L231.753073,117.074862 C232.825384,117.015103 233.682789,116.207248 233.755901,115.182489 L233.755901,107.818498 L233.959728,107.818498 C236.624996,114.937919 241.653112,118.253446 248.423733,118.253446 C255.297375,118.253446 259.607664,114.937919 262.686125,107.818498 C265.355823,114.937919 271.407509,118.253446 277.876819,118.253446 C282.493957,118.253446 287.515427,116.358859 290.593888,112.091611 C294.08222,107.345183 293.363284,100.470997 293.363284,94.4198274 L293.356638,58.8527162 C293.356638,57.7282477 292.407289,56.8222322 291.238603,56.8222322 L280.260716,56.8222322 C279.155172,56.8905126 278.285582,57.7715178 278.285582,58.8475149 L278.285582,88.7279874 C278.285582,91.0985453 278.488302,97.0308607 277.976517,99.2822322 C277.153453,103.080702 274.689797,104.141981 271.513853,104.141981 C268.843047,104.141981 266.071435,102.363039 264.942629,99.5229289 C263.814931,96.6720843 263.91906,91.9285338 263.91906,88.7279874 L263.91906,58.8527162 C263.91906,57.7282477 262.969711,56.8222322 261.79881,56.8222322 L250.818707,56.8222322 C249.718703,56.8905126 248.846897,57.7715178 248.846897,58.8475149 L248.832496,88.7279874 C248.832496,95.0142099 249.861603,104.260835 242.065198,104.260835 C234.164664,104.260835 234.472621,95.2498159 234.472621,88.7279874 L234.465974,58.8527162 C234.470405,57.7282477 233.519948,56.8222322 232.346832,56.8222322" id="path70" fill="#100F0D"></path>
                    <path d="M435.602815,106.753789 C427.492914,106.753789 426.982237,95.725344 426.982237,88.8441858 C426.982237,81.9670115 426.880323,67.2623813 435.503116,67.2623813 C444.020672,67.2623813 444.429435,79.1221428 444.429435,86.3555482 C444.429435,91.0985453 444.226716,96.7896107 442.789953,101.29667 C441.554802,105.211892 439.09447,106.753789 435.602815,106.753789 L435.602815,106.753789 Z M435.503116,118.253446 C451.81597,118.253446 460.641483,104.260835 460.641483,86.4779438 C460.641483,69.2777041 450.889884,55.6382259 435.503116,55.6382259 C419.494897,55.6382259 410.771297,69.6347099 410.771297,87.0680103 C410.771297,104.619612 419.593487,118.253446 435.503116,118.253446 L435.503116,118.253446 Z" id="path72" fill="#100F0D"></path>
                    <path d="M481.799672,56.8222322 L470.847263,56.8222322 C469.743935,56.8905126 468.874345,57.7715178 468.874345,58.8475149 L468.858836,115.232288 C468.949672,116.25926 469.862466,117.069329 470.965793,117.069329 L481.164927,117.074862 C482.126461,117.021743 482.915185,116.368819 483.116797,115.495671 L483.116797,106.871869 L483.325056,106.871869 C486.399086,114.581577 490.711591,118.253446 498.300845,118.253446 C503.227047,118.253446 508.052444,116.479484 511.12869,111.615751 C514,107.110905 514,99.5229289 514,94.066695 L514,58.5994037 C513.877039,57.5998761 512.985293,56.8222322 511.89969,56.8222322 L500.875276,56.8222322 C499.858353,56.88841 499.040828,57.6388303 498.917866,58.5994037 L498.917866,89.2021875 C498.917866,95.3686703 499.637909,104.384006 492.042009,104.384006 C489.375634,104.384006 486.916409,102.600858 485.683474,99.8766147 C484.142582,96.4385808 483.938754,92.9997724 483.938754,89.2021875 L483.938754,58.8527162 C483.919922,57.7282477 482.969466,56.8222322 481.799672,56.8222322" id="path74" fill="#100F0D"></path>
                    <path d="M346.417168,56.9648796 C345.688263,56.3151646 344.644754,56.2718945 343.822797,56.7093538 C340.172733,59.7405826 339.51694,61.1459192 337.521866,64.0288567 C331.487905,57.8891548 327.21528,56.0475763 319.402259,56.0475763 C310.14472,56.0475763 302.94872,61.7533601 302.94872,73.1630464 C302.94872,82.074578 307.779655,88.1365929 314.668806,91.1098331 C320.632978,93.7251823 328.963323,94.2014851 335.337366,94.9169352 L335.337366,96.3413062 C335.337366,98.9545528 335.542302,102.046205 333.998086,104.30322 C332.665453,106.323744 330.094345,107.153733 327.828978,107.153733 C323.636112,107.153733 319.91072,105.006497 318.993496,100.558312 C318.807392,99.5705149 318.080703,98.5892471 317.084828,98.5416611 L306.433728,99.6945705 C305.532013,99.8968664 304.533922,100.615415 304.794246,101.986999 C307.242392,114.901399 318.913737,118.803452 329.374302,118.803452 C334.718129,118.803452 341.713625,117.378085 345.929754,113.337701 C351.27469,108.343715 350.759582,101.688756 350.759582,94.4379765 L350.759582,77.3306955 C350.759582,72.1847666 352.900879,69.9260912 354.913677,67.1526015 C355.610457,66.1522993 355.767759,64.966965 354.87269,64.2333658 C352.628371,62.3541611 348.639332,58.8958756 346.447078,56.9406439 L346.417168,56.9648796 L346.417168,56.9648796 Z M335.337366,83.7415269 C335.337366,79.4618847 335.43928,75.8929341 333.279151,72.0926932 C331.531108,68.9997133 328.752849,67.0998142 325.667741,67.0998142 C321.456043,67.0998142 318.989065,70.3077752 318.989065,75.0642735 C318.989065,84.4145923 327.388091,86.1169541 335.337366,86.1169541 L335.337366,83.7415269 L335.337366,83.7415269 Z" id="path76" fill="#100F0D"></path>
                    <path d="M202.326573,56.9648796 C201.599884,56.3151646 200.548621,56.2718945 199.726664,56.7093538 C196.076599,59.7405826 195.423022,61.1459192 193.425733,64.0288567 C187.395095,57.8891548 183.120254,56.0475763 175.302802,56.0475763 C166.048586,56.0475763 158.850371,61.7533601 158.850371,73.1630464 C158.850371,82.074578 163.685737,88.1365929 170.574888,91.1098331 C176.540168,93.7251823 184.869405,94.2014851 191.243448,94.9169352 L191.243448,96.3413062 C191.243448,98.9545528 191.450599,102.046205 189.906384,104.30322 C188.570427,106.323744 185.997103,107.153733 183.738384,107.153733 C179.545517,107.153733 175.815694,105.006497 174.901793,100.558312 C174.711259,99.5705149 173.987892,98.5892471 172.993125,98.5416611 L162.337595,99.6945705 C161.438095,99.8968664 160.438897,100.615415 160.697004,101.986999 C163.145151,114.901399 174.817603,118.803452 185.27706,118.803452 C190.627534,118.803452 197.617491,117.378085 201.834728,113.337701 C207.181879,108.343715 206.665664,101.688756 206.665664,94.4379765 L206.665664,77.3306955 C206.665664,72.1847666 208.808069,69.9260912 210.815328,67.1526015 C211.515431,66.1522993 211.673841,64.966965 210.780987,64.2333658 C208.534453,62.3541611 204.543198,58.8958756 202.352052,56.9406439 L202.326573,56.9648796 L202.326573,56.9648796 Z M191.243448,83.7415269 C191.243448,79.4618847 191.344254,75.8929341 189.188556,72.0926932 C187.441621,68.9997133 184.661147,67.0998142 181.58047,67.0998142 C177.359909,67.0998142 174.894039,70.3077752 174.894039,75.0642735 C174.894039,84.4145923 183.290849,86.1169541 191.243448,86.1169541 L191.243448,83.7415269 L191.243448,83.7415269 Z" id="path78" fill="#100F0D"></path>
                </g>
            </g>
        </g>
        <g id="Title-Vector" sketch:type="MSLayerGroup" transform="translate(11.000000, 13.000000)" fill="#F68D11">
            <path d="M33.8759766,57 L0.263671875,57 L0.263671875,2.74658203 L33.8759766,2.74658203 L33.8759766,8.83740234 L7.03125,8.83740234 L7.03125,26.2451172 L32.4848633,26.2451172 L32.4848633,32.2607422 L7.03125,32.2607422 L7.03125,50.9091797 L33.8759766,50.9091797 L33.8759766,57 Z M75.722168,57 L42.7866211,57 L42.7866211,2.74658203 L49.5541992,2.74658203 L49.5541992,50.9091797 L75.722168,50.9091797 L75.722168,57 Z M83.1665039,57 L83.1665039,2.74658203 L104.40918,2.74658203 C106.740246,2.74658203 108.858226,3.07242513 110.763184,3.72412109 C112.668141,4.37581706 114.303623,5.29068421 115.669678,6.46875 C117.035733,7.64681579 118.094723,9.06924622 118.84668,10.736084 C119.598637,12.4029217 119.974609,14.2514547 119.974609,16.2817383 C119.974609,17.6853911 119.730227,19.0514256 119.241455,20.3798828 C118.752683,21.70834 118.088464,22.9051867 117.248779,23.970459 C116.409094,25.0357312 115.419032,25.938066 114.278564,26.6774902 C113.138097,27.4169145 111.916185,27.8994129 110.612793,28.125 L110.612793,28.4257812 C112.442555,28.6513683 114.103101,29.140133 115.594482,29.8920898 C117.085864,30.6440467 118.357905,31.5965112 119.410645,32.7495117 C120.463384,33.9025123 121.277992,35.2434819 121.854492,36.7724609 C122.430992,38.3014399 122.719238,39.9682527 122.719238,41.7729492 C122.719238,44.154146 122.305668,46.2909248 121.478516,48.1833496 C120.651363,50.0757744 119.44825,51.6736588 117.869141,52.9770508 C116.290031,54.2804427 114.360037,55.2767706 112.079102,55.9660645 C109.798166,56.6553583 107.216486,57 104.333984,57 L83.1665039,57 Z M89.934082,26.1323242 L100.762207,26.1323242 C104.797709,26.1323242 107.868154,25.36158 109.973633,23.8200684 C112.079112,22.2785567 113.131836,20.0289861 113.131836,17.0712891 C113.131836,14.3642443 112.2483,12.2963939 110.481201,10.8676758 C108.714102,9.4389577 106.176286,8.72460938 102.867676,8.72460938 L89.934082,8.72460938 L89.934082,26.1323242 Z M103.318848,51.0219727 C107.429545,51.0219727 110.531321,50.2136311 112.624268,48.5969238 C114.717214,46.9802165 115.763672,44.5927892 115.763672,41.4345703 C115.763672,38.2763514 114.673351,35.9077227 112.492676,34.3286133 C110.312001,32.7495038 107.041037,31.9599609 102.679688,31.9599609 L89.934082,31.9599609 L89.934082,51.0219727 L103.318848,51.0219727 Z M178.626953,41.472168 L157.045898,41.472168 L151.594238,57 L144.488281,57 L164.490234,2.74658203 L171.182617,2.74658203 L191.18457,57 L184.078613,57 L178.626953,41.472168 Z M159.038574,35.7197266 L176.634277,35.7197266 L167.949219,10.9804688 L167.723633,10.9804688 L159.038574,35.7197266 Z M216.036621,16.09375 C218.61834,16.09375 220.974436,16.5887809 223.10498,17.5788574 C225.235525,18.568934 227.065259,19.9662996 228.594238,21.7709961 C230.123217,23.5756926 231.307532,25.7500687 232.147217,28.2941895 C232.986902,30.8383102 233.406738,33.6518401 233.406738,36.7348633 C233.406738,39.8178865 232.986902,42.6314163 232.147217,45.1755371 C231.307532,47.7196579 230.13575,49.8940339 228.631836,51.6987305 C227.127922,53.503427 225.316987,54.9007926 223.198975,55.8908691 C221.080963,56.8809457 218.743665,57.3759766 216.187012,57.3759766 C213.30451,57.3759766 210.747895,56.7744201 208.51709,55.5712891 C206.286284,54.368158 204.531745,52.6512156 203.253418,50.4204102 L203.103027,50.4204102 L203.103027,70.5351562 L196.561035,70.5351562 L196.561035,16.4697266 L202.764648,16.4697266 L202.764648,23.0493164 L202.915039,23.0493164 C203.516605,21.9965768 204.274816,21.0441123 205.189697,20.1918945 C206.104578,19.3396767 207.132237,18.6065298 208.272705,17.9924316 C209.413173,17.3783335 210.641351,16.9083675 211.957275,16.5825195 C213.2732,16.2566715 214.632968,16.09375 216.036621,16.09375 L216.036621,16.09375 Z M214.833496,51.5483398 C216.613127,51.5483398 218.236077,51.1974319 219.702393,50.4956055 C221.168709,49.793779 222.421951,48.7974511 223.462158,47.5065918 C224.502365,46.2157325 225.304441,44.6617116 225.868408,42.8444824 C226.432376,41.0272533 226.714355,38.9907339 226.714355,36.7348633 C226.714355,34.5040579 226.432376,32.4738047 225.868408,30.644043 C225.304441,28.8142812 224.502365,27.2539941 223.462158,25.9631348 C222.421951,24.6722754 221.168709,23.6759475 219.702393,22.9741211 C218.236077,22.2722947 216.613127,21.9213867 214.833496,21.9213867 C213.07893,21.9213867 211.481046,22.2785609 210.039795,22.9929199 C208.598544,23.707279 207.357834,24.7161393 206.317627,26.0195312 C205.27742,27.3229232 204.475345,28.8832103 203.911377,30.7004395 C203.347409,32.5176686 203.06543,34.5291231 203.06543,36.7348633 C203.06543,38.9406035 203.347409,40.952058 203.911377,42.7692871 C204.475345,44.5865162 205.27742,46.1468034 206.317627,47.4501953 C207.357834,48.7535872 208.598544,49.7624476 210.039795,50.4768066 C211.481046,51.1911657 213.07893,51.5483398 214.833496,51.5483398 L214.833496,51.5483398 Z M259.762695,16.09375 C262.344414,16.09375 264.70051,16.5887809 266.831055,17.5788574 C268.961599,18.568934 270.791334,19.9662996 272.320312,21.7709961 C273.849291,23.5756926 275.033606,25.7500687 275.873291,28.2941895 C276.712976,30.8383102 277.132812,33.6518401 277.132812,36.7348633 C277.132812,39.8178865 276.712976,42.6314163 275.873291,45.1755371 C275.033606,47.7196579 273.861824,49.8940339 272.35791,51.6987305 C270.853996,53.503427 269.043061,54.9007926 266.925049,55.8908691 C264.807037,56.8809457 262.469739,57.3759766 259.913086,57.3759766 C257.030585,57.3759766 254.473969,56.7744201 252.243164,55.5712891 C250.012359,54.368158 248.257819,52.6512156 246.979492,50.4204102 L246.829102,50.4204102 L246.829102,70.5351562 L240.287109,70.5351562 L240.287109,16.4697266 L246.490723,16.4697266 L246.490723,23.0493164 L246.641113,23.0493164 C247.242679,21.9965768 248.000891,21.0441123 248.915771,20.1918945 C249.830652,19.3396767 250.858311,18.6065298 251.998779,17.9924316 C253.139247,17.3783335 254.367425,16.9083675 255.68335,16.5825195 C256.999274,16.2566715 258.359042,16.09375 259.762695,16.09375 L259.762695,16.09375 Z M258.55957,51.5483398 C260.339202,51.5483398 261.962151,51.1974319 263.428467,50.4956055 C264.894783,49.793779 266.148025,48.7974511 267.188232,47.5065918 C268.228439,46.2157325 269.030515,44.6617116 269.594482,42.8444824 C270.15845,41.0272533 270.44043,38.9907339 270.44043,36.7348633 C270.44043,34.5040579 270.15845,32.4738047 269.594482,30.644043 C269.030515,28.8142812 268.228439,27.2539941 267.188232,25.9631348 C266.148025,24.6722754 264.894783,23.6759475 263.428467,22.9741211 C261.962151,22.2722947 260.339202,21.9213867 258.55957,21.9213867 C256.805004,21.9213867 255.20712,22.2785609 253.765869,22.9929199 C252.324618,23.707279 251.083908,24.7161393 250.043701,26.0195312 C249.003494,27.3229232 248.201419,28.8832103 247.637451,30.7004395 C247.073484,32.5176686 246.791504,34.5291231 246.791504,36.7348633 C246.791504,38.9406035 247.073484,40.952058 247.637451,42.7692871 C248.201419,44.5865162 249.003494,46.1468034 250.043701,47.4501953 C251.083908,48.7535872 252.324618,49.7624476 253.765869,50.4768066 C255.20712,51.1911657 256.805004,51.5483398 258.55957,51.5483398 L258.55957,51.5483398 Z M284.38916,0.377929688 L290.931152,0.377929688 L290.931152,57 L284.38916,57 L284.38916,0.377929688 Z M300.556152,16.4697266 L307.098145,16.4697266 L307.098145,57 L300.556152,57 L300.556152,16.4697266 Z M303.827148,9.92773438 C303.250648,9.92773438 302.711754,9.82120875 302.210449,9.6081543 C301.709145,9.39509985 301.27051,9.10058782 300.894531,8.72460938 C300.518553,8.34863093 300.224041,7.909996 300.010986,7.40869141 C299.797932,6.90738682 299.691406,6.36849247 299.691406,5.79199219 C299.691406,5.21549191 299.797932,4.67659756 300.010986,4.17529297 C300.224041,3.67398838 300.518553,3.23535344 300.894531,2.859375 C301.27051,2.48339656 301.709145,2.18888453 302.210449,1.97583008 C302.711754,1.76277563 303.250648,1.65625 303.827148,1.65625 C304.403649,1.65625 304.942543,1.76277563 305.443848,1.97583008 C305.945152,2.18888453 306.383787,2.48339656 306.759766,2.859375 C307.135744,3.23535344 307.430256,3.67398838 307.643311,4.17529297 C307.856365,4.67659756 307.962891,5.21549191 307.962891,5.79199219 C307.962891,6.36849247 307.856365,6.90738682 307.643311,7.40869141 C307.430256,7.909996 307.135744,8.34863093 306.759766,8.72460938 C306.383787,9.10058782 305.945152,9.39509985 305.443848,9.6081543 C304.942543,9.82120875 304.403649,9.92773438 303.827148,9.92773438 L303.827148,9.92773438 Z M343.41748,29.6665039 C343.216959,28.588699 342.840986,27.5798387 342.289551,26.6398926 C341.738116,25.6999465 341.017501,24.8790725 340.127686,24.1772461 C339.23787,23.4754197 338.191412,22.9239929 336.988281,22.5229492 C335.78515,22.1219055 334.419116,21.9213867 332.890137,21.9213867 C331.110505,21.9213867 329.493822,22.2722947 328.040039,22.9741211 C326.586256,23.6759475 325.339279,24.6722754 324.299072,25.9631348 C323.258865,27.2539941 322.450524,28.8142812 321.874023,30.644043 C321.297523,32.4738047 321.009277,34.5040579 321.009277,36.7348633 C321.009277,39.0408644 321.297523,41.1087148 321.874023,42.9384766 C322.450524,44.7682383 323.265131,46.3222592 324.317871,47.6005859 C325.370611,48.8789126 326.63012,49.8564419 328.096436,50.5332031 C329.562751,51.2099643 331.185701,51.5483398 332.965332,51.5483398 C335.797703,51.5483398 338.116202,50.9091861 339.920898,49.6308594 C341.725595,48.3525327 342.916176,46.4852011 343.492676,44.0288086 L349.921875,44.0288086 C349.646157,46.0089617 349.038335,47.8136312 348.098389,49.4428711 C347.158443,51.072111 345.949063,52.4757428 344.470215,53.6538086 C342.991366,54.8318744 341.274424,55.7467415 339.319336,56.3984375 C337.364248,57.0501335 335.233735,57.3759766 332.927734,57.3759766 C330.145494,57.3759766 327.613944,56.8997443 325.333008,55.9472656 C323.052072,54.9947869 321.097013,53.6224862 319.467773,51.8303223 C317.838534,50.0381584 316.579025,47.8700485 315.689209,45.3259277 C314.799393,42.7818069 314.354492,39.9181474 314.354492,36.7348633 C314.354492,33.6267748 314.799393,30.8007126 315.689209,28.2565918 C316.579025,25.712471 317.832267,23.538095 319.448975,21.7333984 C321.065682,19.9287019 323.008208,18.5376025 325.276611,17.5600586 C327.545015,16.5825146 330.070299,16.09375 332.852539,16.09375 C335.359062,16.09375 337.614899,16.4697228 339.620117,17.2216797 C341.625336,17.9736366 343.35481,18.9762307 344.808594,20.2294922 C346.262377,21.4827537 347.41536,22.9239827 348.267578,24.5532227 C349.119796,26.1824626 349.646158,27.8868726 349.84668,29.6665039 L343.41748,29.6665039 Z M369.435059,51.6987305 C371.089364,51.6987305 372.61832,51.4480819 374.021973,50.9467773 C375.425626,50.4454728 376.635005,49.7436569 377.650146,48.8413086 C378.665288,47.9389603 379.461097,46.8674378 380.037598,45.626709 C380.614098,44.3859801 380.902344,43.0387442 380.902344,41.5849609 L380.902344,38.3139648 L370.299805,38.9907227 C367.241847,39.1912445 364.93588,39.8366645 363.381836,40.927002 C361.827792,42.0173394 361.050781,43.5400293 361.050781,45.4951172 C361.050781,46.4475959 361.245034,47.2998009 361.633545,48.0517578 C362.022056,48.8037147 362.586015,49.4554009 363.325439,50.0068359 C364.064864,50.558271 364.9484,50.9781073 365.976074,51.2663574 C367.003749,51.5546076 368.156732,51.6987305 369.435059,51.6987305 L369.435059,51.6987305 Z M368.043945,57.3759766 C365.988596,57.3759766 364.121265,57.093997 362.441895,56.5300293 C360.762524,55.9660616 359.321295,55.1639863 358.118164,54.1237793 C356.915033,53.0835723 355.987633,51.8303296 355.335938,50.3640137 C354.684242,48.8976977 354.358398,47.2622161 354.358398,45.4575195 C354.358398,41.9483874 355.649238,39.2037859 358.230957,37.2236328 C360.812676,35.2434797 364.584936,34.1030288 369.547852,33.8022461 L380.902344,33.1254883 L380.902344,29.7416992 C380.902344,27.210111 380.106535,25.2738511 378.514893,23.9328613 C376.923251,22.5918716 374.62355,21.9213867 371.615723,21.9213867 C370.437657,21.9213867 369.347336,22.0655096 368.344727,22.3537598 C367.342117,22.6420099 366.446049,23.05558 365.656494,23.5944824 C364.866939,24.1333849 364.215253,24.7913373 363.701416,25.5683594 C363.187579,26.3453815 362.830405,27.2101189 362.629883,28.1625977 L356.351074,28.1625977 C356.401205,26.4581621 356.827307,24.8665439 357.629395,23.3876953 C358.431482,21.9088468 359.521803,20.6305392 360.900391,19.5527344 C362.278978,18.4749295 363.889395,17.6289907 365.731689,17.0148926 C367.573984,16.4007945 369.560373,16.09375 371.690918,16.09375 C374.09718,16.09375 376.26529,16.4007945 378.195312,17.0148926 C380.125335,17.6289907 381.779616,18.5062606 383.158203,19.6467285 C384.536791,20.7871965 385.595781,22.1657634 386.335205,23.7824707 C387.074629,25.399178 387.444336,27.1975812 387.444336,29.1777344 L387.444336,57 L381.240723,57 L381.240723,49.9692383 L381.090332,49.9692383 C380.513832,51.0971736 379.774419,52.1185664 378.87207,53.0334473 C377.969722,53.9483281 376.954595,54.7253386 375.82666,55.364502 C374.698725,56.0036653 373.476813,56.4986962 372.160889,56.8496094 C370.844964,57.2005226 369.472663,57.3759766 368.043945,57.3759766 L368.043945,57.3759766 Z M404.814453,7.33349609 L404.814453,16.4697266 L412.709961,16.4697266 L412.709961,21.8837891 L404.814453,21.8837891 L404.814453,46.2094727 C404.814453,48.0893649 405.221757,49.4616656 406.036377,50.326416 C406.850997,51.1911664 408.123038,51.6235352 409.852539,51.6235352 C410.053061,51.6235352 410.291177,51.6172689 410.566895,51.6047363 C410.842612,51.5922037 411.118325,51.5796713 411.394043,51.5671387 C411.66976,51.5546061 411.920409,51.5358074 412.145996,51.5107422 C412.371583,51.485677 412.547037,51.4606121 412.672363,51.4355469 L412.672363,56.9624023 C412.27132,57.0626633 411.663497,57.144124 410.848877,57.2067871 C410.034257,57.2694502 409.238448,57.3007812 408.461426,57.3007812 C406.631664,57.3007812 405.071377,57.1002624 403.780518,56.6992188 C402.489658,56.2981751 401.436934,55.6652875 400.622314,54.8005371 C399.807694,53.9357867 399.212404,52.8204007 398.836426,51.4543457 C398.460447,50.0882907 398.272461,48.4277442 398.272461,46.4726562 L398.272461,21.8837891 L392.632812,21.8837891 L392.632812,16.4697266 L398.272461,16.4697266 L398.272461,7.33349609 L404.814453,7.33349609 Z M420.342285,16.4697266 L426.884277,16.4697266 L426.884277,57 L420.342285,57 L420.342285,16.4697266 Z M423.613281,9.92773438 C423.036781,9.92773438 422.497887,9.82120875 421.996582,9.6081543 C421.495277,9.39509985 421.056643,9.10058782 420.680664,8.72460938 C420.304686,8.34863093 420.010174,7.909996 419.797119,7.40869141 C419.584065,6.90738682 419.477539,6.36849247 419.477539,5.79199219 C419.477539,5.21549191 419.584065,4.67659756 419.797119,4.17529297 C420.010174,3.67398838 420.304686,3.23535344 420.680664,2.859375 C421.056643,2.48339656 421.495277,2.18888453 421.996582,1.97583008 C422.497887,1.76277563 423.036781,1.65625 423.613281,1.65625 C424.189782,1.65625 424.728676,1.76277563 425.22998,1.97583008 C425.731285,2.18888453 426.16992,2.48339656 426.545898,2.859375 C426.921877,3.23535344 427.216389,3.67398838 427.429443,4.17529297 C427.642498,4.67659756 427.749023,5.21549191 427.749023,5.79199219 C427.749023,6.36849247 427.642498,6.90738682 427.429443,7.40869141 C427.216389,7.909996 426.921877,8.34863093 426.545898,8.72460938 C426.16992,9.10058782 425.731285,9.39509985 425.22998,9.6081543 C424.728676,9.82120875 424.189782,9.92773438 423.613281,9.92773438 L423.613281,9.92773438 Z M452.82666,57.3759766 C449.969224,57.3759766 447.39381,56.8872119 445.100342,55.909668 C442.806873,54.932124 440.845549,53.5472909 439.216309,51.755127 C437.587069,49.962963 436.333826,47.7948532 435.456543,45.2507324 C434.57926,42.7066116 434.140625,39.868017 434.140625,36.7348633 C434.140625,33.5766444 434.57926,30.7255173 435.456543,28.1813965 C436.333826,25.6372757 437.587069,23.4691659 439.216309,21.677002 C440.845549,19.884838 442.806873,18.5062711 445.100342,17.5412598 C447.39381,16.5762484 449.969224,16.09375 452.82666,16.09375 C455.684096,16.09375 458.25951,16.5762484 460.552979,17.5412598 C462.846447,18.5062711 464.807772,19.884838 466.437012,21.677002 C468.066252,23.4691659 469.319494,25.6372757 470.196777,28.1813965 C471.07406,30.7255173 471.512695,33.5766444 471.512695,36.7348633 C471.512695,39.868017 471.07406,42.7066116 470.196777,45.2507324 C469.319494,47.7948532 468.066252,49.962963 466.437012,51.755127 C464.807772,53.5472909 462.846447,54.932124 460.552979,55.909668 C458.25951,56.8872119 455.684096,57.3759766 452.82666,57.3759766 L452.82666,57.3759766 Z M452.82666,51.5483398 C454.706552,51.5483398 456.392164,51.2099643 457.883545,50.5332031 C459.374926,49.8564419 460.640701,48.8851789 461.680908,47.6193848 C462.721115,46.3535907 463.510658,44.805836 464.049561,42.9760742 C464.588463,41.1463125 464.85791,39.0659296 464.85791,36.7348633 C464.85791,34.4037969 464.588463,32.3234141 464.049561,30.4936523 C463.510658,28.6638906 462.721115,27.1098697 461.680908,25.831543 C460.640701,24.5532163 459.374926,23.5819532 457.883545,22.9177246 C456.392164,22.253496 454.706552,21.9213867 452.82666,21.9213867 C450.946768,21.9213867 449.261157,22.2597622 447.769775,22.9365234 C446.278394,23.6132846 445.012619,24.5845477 443.972412,25.8503418 C442.932205,27.1161359 442.142662,28.6638906 441.60376,30.4936523 C441.064857,32.3234141 440.79541,34.4037969 440.79541,36.7348633 C440.79541,39.0659296 441.071124,41.1463125 441.622559,42.9760742 C442.173994,44.805836 442.963537,46.3535907 443.991211,47.6193848 C445.018885,48.8851789 446.278394,49.8564419 447.769775,50.5332031 C449.261157,51.2099643 450.946768,51.5483398 452.82666,51.5483398 L452.82666,51.5483398 Z M478.393066,16.4697266 L484.559082,16.4697266 L484.559082,23.0493164 L484.709473,23.0493164 C487.291191,18.412249 491.702606,16.09375 497.943848,16.09375 C500.174653,16.09375 502.179841,16.4383917 503.959473,17.1276855 C505.739104,17.8169794 507.255528,18.8070411 508.508789,20.0979004 C509.762051,21.3887597 510.720781,22.9553131 511.38501,24.7976074 C512.049238,26.6399018 512.381348,28.7140184 512.381348,31.0200195 L512.381348,57 L505.839355,57 L505.839355,32.1479492 C505.839355,28.8142737 504.999683,26.2764573 503.320312,24.5344238 C501.640942,22.7923904 499.197119,21.9213867 495.98877,21.9213867 C494.334464,21.9213867 492.824307,22.1971001 491.458252,22.7485352 C490.092197,23.2999702 488.926681,24.0769807 487.96167,25.0795898 C486.996659,26.082199 486.250979,27.2978444 485.724609,28.7265625 C485.19824,30.1552806 484.935059,31.7343664 484.935059,33.4638672 L484.935059,57 L478.393066,57 L478.393066,16.4697266 Z" id="Application-Copy" sketch:type="MSShapeGroup"></path>
        </g>
    </g>
</svg>